<svg width="136" height="56" viewBox="0 0 136 56" fill="none" xmlns="http://www.w3.org/2000/svg">
<g clip-path="url(#clip0_1238_1294)">
<path d="M0 24.3355V29.26C1.69536 29.2588 3.37431 29.5895 4.94079 30.2331C6.50727 30.8766 7.93052 31.8205 9.12912 33.0106C10.3274 34.2003 11.2777 35.6128 11.9257 37.1672C12.5737 38.7217 12.9067 40.3877 12.9056 42.07H17.8633C17.8588 37.3685 15.9755 32.8608 12.6265 29.536C9.27759 26.2112 4.7366 24.3409 0 24.3355H0Z" fill="white"/>
<path d="M24.7939 15.47H16.937C20.9117 17.9701 24.2795 21.3126 26.7989 25.2574V17.4587C26.7985 16.9311 26.5871 16.4253 26.2111 16.0524C25.8352 15.6795 25.3254 15.47 24.7939 15.47Z" fill="white"/>
<path d="M4.93657 15.47H0V19.9038C5.92089 19.9099 11.5975 22.2472 15.7843 26.4028C19.9711 30.5585 22.326 36.193 22.3323 42.07H26.7985V37.17C25.7887 31.7846 23.1596 26.8289 19.2572 22.9555C15.3548 19.082 10.3622 16.4723 4.93657 15.47Z" fill="white"/>
<path d="M38.9504 18.3981H35.8037V34.1411H38.9504V18.3981Z" fill="white"/>
<path d="M50.5199 25.2189C49.996 24.7462 49.3829 24.3815 48.7159 24.1458C47.2832 23.6465 45.7219 23.6465 44.2892 24.1458C43.622 24.3813 43.0086 24.7461 42.4846 25.2189C41.9707 25.6892 41.5601 26.2597 41.2786 26.8947C40.9877 27.5875 40.8379 28.3306 40.8379 29.0812C40.8379 29.8317 40.9877 30.5748 41.2786 31.2676C41.5591 31.9045 41.9697 32.4765 42.4846 32.9476C43.0076 33.4208 43.6207 33.7854 44.2878 34.02C45.7203 34.5203 47.282 34.5203 48.7145 34.02C49.3818 33.7854 49.9951 33.4208 50.5185 32.9476C51.0331 32.4764 51.4437 31.9043 51.7244 31.2676C52.0153 30.5748 52.1651 29.8317 52.1651 29.0812C52.1651 28.3306 52.0153 27.5875 51.7244 26.8947C51.4432 26.2599 51.0331 25.6894 50.5199 25.2189ZM48.3591 30.9351C47.8495 31.3907 47.188 31.6428 46.5022 31.6428C45.8164 31.6428 45.1549 31.3907 44.6454 30.9351C44.2171 30.4103 43.9834 29.7555 43.9834 29.0801C43.9834 28.4047 44.2171 27.7499 44.6454 27.2251C45.1549 26.7695 45.8164 26.5174 46.5022 26.5174C47.188 26.5174 47.8495 26.7695 48.3591 27.2251C48.7874 27.7499 49.021 28.4047 49.021 29.0801C49.021 29.7555 48.7874 30.4103 48.3591 30.9351Z" fill="white"/>
<path d="M61.8168 25.354H61.7773C61.6317 25.1512 61.4627 24.9661 61.2737 24.8024C61.0448 24.6014 60.7913 24.4297 60.5192 24.2914C59.8314 23.9411 59.0679 23.7626 58.2949 23.7713C57.6175 23.7595 56.9476 23.9134 56.3442 24.2193C55.782 24.5083 55.2856 24.9088 54.8858 25.396C54.4781 25.8982 54.1654 26.4695 53.9627 27.0823C53.7472 27.7136 53.6373 28.3757 53.6376 29.0423C53.6296 29.7578 53.7505 30.469 53.9944 31.1423C54.2155 31.7568 54.56 32.3202 55.0071 32.7985C55.4526 33.2665 55.9932 33.6352 56.5932 33.88C57.2455 34.1439 57.9446 34.2748 58.6489 34.265C59.1699 34.2561 59.685 34.1539 60.1694 33.9633C60.7126 33.7588 61.1832 33.4002 61.5227 32.9322H61.565V33.9122C61.5768 34.2391 61.5225 34.565 61.4054 34.8707C61.2883 35.1764 61.1107 35.4558 60.883 35.6923C60.5942 35.9459 60.2566 36.1388 59.8905 36.2591C59.5244 36.3794 59.1375 36.4247 58.7533 36.3923C58.144 36.3991 57.5402 36.2784 56.981 36.0381C56.4247 35.7914 55.9057 35.4691 55.4387 35.0805L53.6975 37.66C54.4092 38.229 55.2411 38.6312 56.1312 38.8367C57.012 39.0377 57.913 39.1389 58.8167 39.1384C60.8027 39.1384 62.2815 38.6421 63.2533 37.6495C64.2251 36.6569 64.7112 35.2028 64.7117 33.2871V24.0212H61.8203L61.8168 25.354ZM61.6278 29.9663C61.5036 30.2626 61.3217 30.5317 61.0925 30.758C60.8591 30.9888 60.5856 31.1757 60.285 31.3096C59.9729 31.4472 59.6353 31.5182 59.2938 31.5182C58.9524 31.5182 58.6147 31.4472 58.3026 31.3096C58.0061 31.1738 57.7361 30.9871 57.505 30.758C57.2748 30.5298 57.0922 30.2587 56.9676 29.9603C56.843 29.662 56.7789 29.3422 56.7789 29.0192C56.7789 28.6962 56.843 28.3764 56.9676 28.0781C57.0922 27.7797 57.2748 27.5087 57.505 27.2804C57.7362 27.0513 58.0062 26.8644 58.3026 26.7281C58.6148 26.591 58.9524 26.5202 59.2938 26.5202C59.6352 26.5202 59.9728 26.591 60.285 26.7281C60.5854 26.8625 60.859 27.0496 61.0925 27.2804C61.4387 27.6258 61.6742 28.0651 61.7694 28.543C61.8647 29.0209 61.8154 29.5161 61.6278 29.9663Z" fill="white"/>
<path d="M76.5336 25.2189C76.0097 24.7462 75.3965 24.3815 74.7296 24.1458C73.2969 23.6465 71.7356 23.6465 70.3029 24.1458C69.6357 24.3813 69.0222 24.7461 68.4982 25.2189C67.9843 25.6892 67.5738 26.2597 67.2923 26.8947C67.0014 27.5875 66.8516 28.3306 66.8516 29.0812C66.8516 29.8317 67.0014 30.5748 67.2923 31.2676C67.5727 31.9045 67.9834 32.4765 68.4982 32.9476C69.0217 33.4209 69.6353 33.7855 70.3029 34.02C71.7354 34.5203 73.2971 34.5203 74.7296 34.02C75.3969 33.7854 76.0102 33.4208 76.5336 32.9476C77.0484 32.4765 77.4591 31.9045 77.7395 31.2676C78.0304 30.5748 78.1802 29.8317 78.1802 29.0812C78.1802 28.3306 78.0304 27.5875 77.7395 26.8947C77.458 26.2597 77.0474 25.6892 76.5336 25.2189ZM74.3727 30.9351C73.8632 31.3907 73.2017 31.6428 72.5159 31.6428C71.8301 31.6428 71.1686 31.3907 70.659 30.9351C70.2308 30.4103 69.9971 29.7555 69.9971 29.0801C69.9971 28.4047 70.2308 27.7499 70.659 27.2251C71.1686 26.7695 71.8301 26.5174 72.5159 26.5174C73.2017 26.5174 73.8632 26.7695 74.3727 27.2251C74.801 27.7499 75.0347 28.4047 75.0347 29.0801C75.0347 29.7555 74.801 30.4103 74.3727 30.9351Z" fill="white"/>
<path d="M82.3546 24.0912H80.667V34.1411H82.3546V24.0912Z" fill="white"/>
<path d="M81.5114 18.9378C81.3477 18.9347 81.1852 18.9656 81.0343 19.0284C80.8833 19.0912 80.7473 19.1845 80.6348 19.3025C80.4632 19.4742 80.3466 19.6925 80.2998 19.9299C80.253 20.1672 80.2781 20.413 80.3718 20.6363C80.4655 20.8595 80.6237 21.0502 80.8264 21.1844C81.0291 21.3186 81.2673 21.3901 81.511 21.3901C81.7547 21.3901 81.9929 21.3186 82.1956 21.1844C82.3983 21.0502 82.5565 20.8595 82.6502 20.6363C82.7439 20.413 82.769 20.1672 82.7222 19.9299C82.6754 19.6925 82.5588 19.4742 82.3872 19.3025C82.2749 19.1845 82.139 19.0911 81.9881 19.0283C81.8373 18.9655 81.6749 18.9346 81.5114 18.9378Z" fill="white"/>
<path d="M94.8377 25.34C94.3629 24.8589 93.7919 24.4819 93.1613 24.2333C92.4693 23.9625 91.7309 23.8278 90.9871 23.8364C90.2865 23.8284 89.5936 23.983 88.9639 24.2879C88.3436 24.5941 87.7945 25.0254 87.3517 25.5542H87.3066V24.0912H85.6211V39.0376H87.3066V32.3596H87.3496C87.7078 32.9721 88.23 33.4741 88.8581 33.81C89.5873 34.2153 90.4126 34.4193 91.2481 34.4008C91.9321 34.4051 92.6098 34.2698 93.2389 34.0032C93.8464 33.7474 94.3948 33.3711 94.8504 32.8972C95.313 32.4129 95.6768 31.8443 95.9216 31.2228C96.4407 29.8668 96.4407 28.369 95.9216 27.013C95.6746 26.39 95.3063 25.8215 94.8377 25.34ZM94.2425 30.59C94.0852 31.0276 93.8391 31.4285 93.5194 31.7679C93.1998 32.1073 92.8134 32.378 92.3842 32.5633C91.4351 32.9491 90.3713 32.9491 89.4223 32.5633C88.9924 32.378 88.6055 32.1071 88.2855 31.7673C87.9654 31.4275 87.7192 31.0261 87.5619 30.5879C87.2306 29.6355 87.2306 28.6003 87.5619 27.6479C87.7192 27.2097 87.9654 26.8083 88.2855 26.4685C88.6055 26.1287 88.9924 25.8578 89.4223 25.6725C90.3713 25.2867 91.4351 25.2867 92.3842 25.6725C92.814 25.8578 93.201 26.1287 93.521 26.4685C93.841 26.8083 94.0873 27.2097 94.2446 27.6479C94.5758 28.6003 94.5758 29.6355 94.2446 30.5879L94.2425 30.59Z" fill="white"/>
<path d="M104.812 29.12C104.491 28.882 104.134 28.6971 103.754 28.5726C103.337 28.4328 102.91 28.3215 102.477 28.2394C102.153 28.1844 101.832 28.1129 101.515 28.0252C101.232 27.949 100.957 27.8483 100.693 27.7242C100.481 27.6288 100.289 27.4938 100.128 27.3266C99.9916 27.1771 99.9182 26.9811 99.9231 26.7792C99.9198 26.5614 99.9841 26.3478 100.107 26.1674C100.228 25.9892 100.387 25.8391 100.572 25.7271C100.77 25.6083 100.986 25.5214 101.211 25.4695C101.442 25.4128 101.678 25.3839 101.916 25.3834C102.368 25.3694 102.815 25.4851 103.203 25.7166C103.553 25.9353 103.846 26.2332 104.058 26.586L105.464 25.6627C105.152 25.0524 104.646 24.5615 104.025 24.2662C103.398 23.9774 102.715 23.8308 102.024 23.8371C101.556 23.836 101.09 23.901 100.64 24.0303C100.208 24.1524 99.7992 24.3414 99.4273 24.5903C99.0718 24.8286 98.7758 25.1444 98.562 25.5136C98.3407 25.9068 98.2287 26.3513 98.2376 26.8016C98.22 27.2424 98.3208 27.6799 98.5296 28.0693C98.7201 28.395 98.986 28.6709 99.3053 28.8743C99.6579 29.095 100.04 29.2649 100.441 29.379C100.874 29.5078 101.328 29.6224 101.804 29.7227C102.079 29.7801 102.345 29.8445 102.604 29.9159C102.847 29.9806 103.08 30.0781 103.297 30.2057C103.488 30.318 103.653 30.4678 103.784 30.646C103.914 30.8433 103.978 31.0762 103.968 31.3117C103.975 31.5592 103.907 31.8032 103.773 32.0117C103.639 32.2093 103.461 32.3744 103.254 32.4947C103.03 32.6274 102.785 32.7221 102.529 32.7747C102.269 32.8313 102.005 32.8601 101.739 32.8608C101.213 32.881 100.692 32.7544 100.236 32.4954C99.8153 32.2299 99.4455 31.893 99.1431 31.5L97.8032 32.5311C98.218 33.1705 98.8068 33.6802 99.5014 34.0011C100.213 34.2816 100.975 34.4168 101.74 34.3987C102.239 34.3991 102.736 34.3416 103.221 34.2272C103.683 34.1213 104.122 33.936 104.52 33.6798C104.899 33.4298 105.213 33.0939 105.437 32.6998C105.679 32.2525 105.798 31.75 105.784 31.2424C105.797 30.806 105.708 30.3725 105.524 29.9761C105.356 29.64 105.112 29.347 104.812 29.12Z" fill="white"/>
<path d="M116.97 31.7576V24.0912H115.282V28.9912C115.287 29.5195 115.226 30.0463 115.098 30.5592C114.99 30.9989 114.798 31.4141 114.534 31.7828C114.283 32.1256 113.947 32.399 113.56 32.5773C113.114 32.7737 112.631 32.8694 112.143 32.8573C111.814 32.8838 111.482 32.8313 111.177 32.7042C110.872 32.5772 110.603 32.3793 110.391 32.1272C109.985 31.5417 109.787 30.8394 109.827 30.1301V24.0912H108.139V30.2974C108.134 30.86 108.21 31.4204 108.366 31.9613C108.502 32.4409 108.743 32.8847 109.071 33.2612C109.4 33.6292 109.811 33.9167 110.27 34.1012C110.818 34.3134 111.402 34.4157 111.99 34.4022C112.386 34.4054 112.779 34.3509 113.159 34.2405C113.501 34.1415 113.828 33.9972 114.132 33.8114C114.408 33.6427 114.659 33.4368 114.878 33.1996C115.075 32.9886 115.239 32.7496 115.365 32.4905H115.408C115.408 32.7775 115.416 33.0575 115.43 33.3305C115.445 33.6035 115.452 33.8756 115.451 34.1467H117.053C117.053 33.8168 117.038 33.4516 117.009 33.0512C116.98 32.6508 116.967 32.2196 116.97 31.7576Z" fill="white"/>
<path d="M135.208 26.2927C135.095 25.8064 134.873 25.3517 134.559 24.9627C134.241 24.5863 133.831 24.2971 133.369 24.1227C132.787 23.9141 132.17 23.8158 131.552 23.8329C130.88 23.8038 130.215 23.9799 129.647 24.3376C129.121 24.7123 128.679 25.1914 128.35 25.7446C128.263 25.5724 128.151 25.3755 128.014 25.1538C127.861 24.9144 127.667 24.7036 127.441 24.5308C127.163 24.321 126.853 24.1557 126.524 24.0408C126.081 23.8931 125.616 23.8239 125.149 23.8364C124.754 23.8332 124.361 23.8877 123.982 23.9981C123.639 24.0971 123.311 24.2414 123.008 24.4272C122.732 24.5962 122.481 24.802 122.262 25.039C122.065 25.25 121.901 25.489 121.775 25.7481H121.731C121.731 25.4611 121.724 25.1825 121.71 24.9081C121.696 24.6337 121.688 24.3642 121.688 24.0919H120.087C120.087 24.4218 120.102 24.787 120.13 25.1874C120.159 25.5878 120.173 26.0174 120.173 26.4761V34.1418H121.862V29.246C121.857 28.7175 121.919 28.1904 122.047 27.6773C122.154 27.2374 122.346 26.8221 122.611 26.4537C122.862 26.1108 123.197 25.8373 123.584 25.6592C124.03 25.4627 124.514 25.367 125.001 25.3792C125.29 25.3547 125.58 25.4066 125.843 25.5295C126.105 25.6525 126.329 25.8421 126.494 26.0792C126.856 26.8157 127.013 27.6351 126.949 28.4522V34.1432H128.633V28.343C128.628 27.9297 128.697 27.5188 128.839 27.1299C128.964 26.7851 129.155 26.4679 129.403 26.1961C129.636 25.9416 129.92 25.737 130.236 25.5948C130.555 25.4513 130.902 25.378 131.253 25.3799C131.669 25.3649 132.084 25.4456 132.464 25.6158C132.764 25.7595 133.023 25.9736 133.221 26.2395C133.411 26.5027 133.544 26.8024 133.611 27.1194C133.683 27.4511 133.719 27.7895 133.719 28.1288V34.1418H135.403V28.0427C135.409 27.4537 135.344 26.8661 135.208 26.2927Z" fill="white"/>
</g>
<defs>
<clipPath id="clip0_1238_1294">
<rect width="135.403" height="56" fill="white"/>
</clipPath>
</defs>
</svg>
