<svg width="136" height="28" viewBox="0 0 136 28" fill="none" xmlns="http://www.w3.org/2000/svg">
<path d="M0 9.33545V14.2599C1.69536 14.2588 3.37431 14.5894 4.94079 15.233C6.50727 15.8766 7.93052 16.8204 9.12912 18.0106C10.3274 19.2002 11.2777 20.6127 11.9257 22.1672C12.5737 23.7217 12.9067 25.3877 12.9056 27.0699H17.8633C17.8588 22.3684 15.9755 17.8607 12.6265 14.5359C9.27759 11.2111 4.7366 9.34082 0 9.33545H0Z" fill="#109BE9"/>
<path d="M24.7934 0.469727H16.9365C20.9112 2.96987 24.279 6.31228 26.7984 10.2571V2.45843C26.798 1.93086 26.5866 1.42503 26.2106 1.05212C25.8347 0.679204 25.3249 0.469726 24.7934 0.469727V0.469727Z" fill="#109BE9"/>
<path d="M4.93657 0.469727H0V4.90353C5.92089 4.90964 11.5975 7.24694 15.7843 11.4026C19.9711 15.5582 22.326 21.1927 22.3323 27.0697H26.7985V22.1697C25.7887 16.7843 23.1596 11.8286 19.2572 7.95518C15.3548 4.08171 10.3622 1.47204 4.93657 0.469727V0.469727Z" fill="#109BE9"/>
<path d="M38.9502 3.39795H35.8035V19.1409H38.9502V3.39795Z" fill="#109BE9"/>
<path d="M50.5201 10.2186C49.9963 9.74594 49.3831 9.38119 48.7162 9.14551C47.2835 8.64616 45.7222 8.64616 44.2895 9.14551C43.6222 9.38102 43.0088 9.74579 42.4848 10.2186C41.9709 10.6889 41.5604 11.2594 41.2789 11.8944C40.9879 12.5872 40.8381 13.3303 40.8381 14.0809C40.8381 14.8314 40.9879 15.5745 41.2789 16.2673C41.5593 16.9042 41.97 17.4762 42.4848 17.9473C43.0079 18.4205 43.621 18.7851 44.2881 19.0197C45.7206 19.52 47.2822 19.52 48.7148 19.0197C49.382 18.7851 49.9954 18.4205 50.5187 17.9473C51.0333 17.4761 51.444 16.904 51.7246 16.2673C52.0156 15.5745 52.1654 14.8314 52.1654 14.0809C52.1654 13.3303 52.0156 12.5872 51.7246 11.8944C51.4434 11.2596 51.0334 10.6891 50.5201 10.2186ZM48.3593 15.9348C47.8498 16.3904 47.1883 16.6425 46.5025 16.6425C45.8167 16.6425 45.1552 16.3904 44.6456 15.9348C44.2173 15.41 43.9836 14.7552 43.9836 14.0798C43.9836 13.4045 44.2173 12.7496 44.6456 12.2248C45.1552 11.7692 45.8167 11.5171 46.5025 11.5171C47.1883 11.5171 47.8498 11.7692 48.3593 12.2248C48.7876 12.7496 49.0213 13.4045 49.0213 14.0798C49.0213 14.7552 48.7876 15.41 48.3593 15.9348V15.9348Z" fill="#109BE9"/>
<path d="M61.8172 10.3538H61.7778C61.6322 10.1511 61.4632 9.96592 61.2742 9.80224C61.0453 9.60119 60.7917 9.42952 60.5196 9.29124C59.8318 8.94094 59.0684 8.76242 58.2954 8.77114C57.618 8.75936 56.9481 8.91322 56.3447 9.21914C55.7825 9.50809 55.2861 9.9086 54.8863 10.3958C54.4786 10.898 54.1658 11.4693 53.9632 12.0821C53.7477 12.7135 53.6378 13.3756 53.6381 14.0421C53.6301 14.7576 53.751 15.4688 53.9949 16.1421C54.2159 16.7566 54.5605 17.3201 55.0076 17.7983C55.4531 18.2664 55.9937 18.635 56.5937 18.8798C57.246 19.1437 57.9451 19.2747 58.6494 19.2648C59.1704 19.2559 59.6854 19.1537 60.1698 18.9631C60.7131 18.7586 61.1837 18.4 61.5232 17.932H61.5655V18.912C61.5773 19.2389 61.523 19.5648 61.4059 19.8705C61.2888 20.1763 61.1112 20.4556 60.8835 20.6921C60.5947 20.9458 60.257 21.1386 59.891 21.2589C59.5249 21.3792 59.138 21.4246 58.7538 21.3921C58.1445 21.3989 57.5407 21.2782 56.9815 21.0379C56.4252 20.7912 55.9061 20.4689 55.4392 20.0803L53.698 22.6598C54.4097 23.2288 55.2416 23.6311 56.1317 23.8365C57.0125 24.0376 57.9135 24.1388 58.8172 24.1382C60.8031 24.1382 62.282 23.6419 63.2538 22.6493C64.2256 21.6567 64.7117 20.2026 64.7122 18.2869V9.02104H61.8208L61.8172 10.3538ZM61.6283 14.9661C61.5041 15.2625 61.3222 15.5315 61.093 15.7578C60.8596 15.9887 60.5861 16.1755 60.2855 16.3094C59.9734 16.447 59.6358 16.5181 59.2943 16.5181C58.9529 16.5181 58.6152 16.447 58.3031 16.3094C58.0066 16.1736 57.7366 15.9869 57.5055 15.7578C57.2753 15.5296 57.0927 15.2585 56.9681 14.9602C56.8435 14.6618 56.7793 14.342 56.7793 14.019C56.7793 13.6961 56.8435 13.3763 56.9681 13.0779C57.0927 12.7795 57.2753 12.5085 57.5055 12.2802C57.7367 12.0512 58.0067 11.8642 58.3031 11.7279C58.6153 11.5908 58.9529 11.52 59.2943 11.52C59.6357 11.52 59.9733 11.5908 60.2855 11.7279C60.5859 11.8623 60.8595 12.0494 61.093 12.2802C61.4392 12.6256 61.6747 13.0649 61.7699 13.5428C61.8652 14.0207 61.8159 14.516 61.6283 14.9661V14.9661Z" fill="#109BE9"/>
<path d="M76.5338 10.2186C76.0099 9.74594 75.3968 9.38119 74.7298 9.14551C73.2972 8.64616 71.7358 8.64616 70.3031 9.14551C69.6359 9.38102 69.0225 9.74579 68.4985 10.2186C67.9846 10.6889 67.574 11.2594 67.2925 11.8944C67.0016 12.5872 66.8518 13.3303 66.8518 14.0809C66.8518 14.8314 67.0016 15.5745 67.2925 16.2673C67.573 16.9042 67.9836 17.4762 68.4985 17.9473C69.022 18.4206 69.6356 18.7853 70.3031 19.0197C71.7357 19.52 73.2973 19.52 74.7298 19.0197C75.3971 18.7851 76.0104 18.4205 76.5338 17.9473C77.0486 17.4762 77.4593 16.9042 77.7397 16.2673C78.0307 15.5745 78.1805 14.8314 78.1805 14.0809C78.1805 13.3303 78.0307 12.5872 77.7397 11.8944C77.4582 11.2594 77.0477 10.6889 76.5338 10.2186V10.2186ZM74.373 15.9348C73.8634 16.3904 73.2019 16.6425 72.5161 16.6425C71.8303 16.6425 71.1688 16.3904 70.6593 15.9348C70.231 15.41 69.9973 14.7552 69.9973 14.0798C69.9973 13.4045 70.231 12.7496 70.6593 12.2248C71.1688 11.7692 71.8303 11.5171 72.5161 11.5171C73.2019 11.5171 73.8634 11.7692 74.373 12.2248C74.8013 12.7496 75.035 13.4045 75.035 14.0798C75.035 14.7552 74.8013 15.41 74.373 15.9348Z" fill="#109BE9"/>
<path d="M82.3548 9.09082H80.6672V19.1407H82.3548V9.09082Z" fill="#109BE9"/>
<path d="M81.5114 3.93772C81.3477 3.93464 81.1852 3.96548 81.0343 4.02828C80.8833 4.09107 80.7473 4.18445 80.6348 4.30242C80.4632 4.47414 80.3466 4.69243 80.2998 4.92978C80.253 5.16713 80.2781 5.41292 80.3718 5.63617C80.4655 5.85943 80.6237 6.05015 80.8264 6.18431C81.0291 6.31847 81.2673 6.39006 81.511 6.39006C81.7547 6.39006 81.9929 6.31847 82.1956 6.18431C82.3983 6.05015 82.5565 5.85943 82.6502 5.63617C82.7439 5.41292 82.769 5.16713 82.7222 4.92978C82.6754 4.69243 82.5588 4.47414 82.3872 4.30242C82.2749 4.1844 82.139 4.09098 81.9881 4.02818C81.8373 3.96537 81.6749 3.93456 81.5114 3.93772V3.93772Z" fill="#109BE9"/>
<path d="M94.8379 10.3394C94.3632 9.85835 93.7921 9.48134 93.1616 9.23274C92.4696 8.96199 91.7312 8.82719 90.9874 8.83584C90.2867 8.82786 89.5939 8.98247 88.9641 9.28734C88.3438 9.59352 87.7947 10.0248 87.352 10.5536H87.3068V9.09064H85.6213V24.037H87.3068V17.359H87.3498C87.7081 17.9715 88.2302 18.4735 88.8583 18.8094C89.5875 19.2147 90.4128 19.4187 91.2483 19.4002C91.9324 19.4045 92.61 19.2692 93.2392 19.0026C93.8467 18.7469 94.395 18.3705 94.8506 17.8966C95.3132 17.4124 95.677 16.8438 95.9218 16.2222C96.4409 14.8663 96.4409 13.3684 95.9218 12.0124C95.6749 11.3895 95.3065 10.821 94.8379 10.3394V10.3394ZM94.2427 15.5894C94.0854 16.027 93.8393 16.4279 93.5197 16.7673C93.2001 17.1068 92.8137 17.3775 92.3844 17.5627C91.4354 17.9485 90.3716 17.9485 89.4225 17.5627C88.9926 17.3775 88.6057 17.1065 88.2857 16.7667C87.9657 16.4269 87.7194 16.0255 87.5621 15.5873C87.2308 14.6349 87.2308 13.5998 87.5621 12.6473C87.7194 12.2092 87.9657 11.8077 88.2857 11.4679C88.6057 11.1281 88.9926 10.8572 89.4225 10.6719C90.3716 10.2861 91.4354 10.2861 92.3844 10.6719C92.8143 10.8572 93.2012 11.1281 93.5212 11.4679C93.8412 11.8077 94.0875 12.2092 94.2448 12.6473C94.5761 13.5998 94.5761 14.6349 94.2448 15.5873L94.2427 15.5894Z" fill="#109BE9"/>
<path d="M104.812 14.1195C104.491 13.8815 104.134 13.6966 103.754 13.5721C103.337 13.4324 102.91 13.321 102.477 13.2389C102.153 13.1839 101.832 13.1124 101.515 13.0247C101.232 12.9486 100.957 12.8478 100.693 12.7237C100.481 12.6283 100.289 12.4933 100.128 12.3261C99.9916 12.1766 99.9182 11.9806 99.9231 11.7787C99.9198 11.5609 99.9841 11.3473 100.107 11.1669C100.228 10.9887 100.387 10.8386 100.572 10.7266C100.77 10.6078 100.986 10.5209 101.211 10.469C101.442 10.4123 101.678 10.3834 101.916 10.3829C102.368 10.369 102.815 10.4846 103.203 10.7161C103.553 10.9348 103.846 11.2327 104.058 11.5855L105.464 10.6622C105.152 10.052 104.646 9.561 104.025 9.26572C103.398 8.97688 102.715 8.83029 102.024 8.83662C101.556 8.83551 101.09 8.90056 100.64 9.02982C100.208 9.1519 99.7992 9.3409 99.4273 9.58982C99.0718 9.82809 98.7758 10.1439 98.562 10.5131C98.3407 10.9063 98.2287 11.3508 98.2376 11.8011C98.22 12.2419 98.3208 12.6794 98.5296 13.0688C98.7201 13.3945 98.986 13.6705 99.3053 13.8738C99.6579 14.0945 100.04 14.2644 100.441 14.3785C100.874 14.5073 101.328 14.6219 101.804 14.7222C102.079 14.7796 102.345 14.844 102.604 14.9154C102.847 14.9802 103.08 15.0777 103.297 15.2052C103.488 15.3175 103.653 15.4674 103.784 15.6455C103.914 15.8428 103.978 16.0757 103.968 16.3112C103.975 16.5587 103.907 16.8027 103.773 17.0112C103.639 17.2088 103.461 17.3739 103.254 17.4942C103.03 17.6269 102.785 17.7216 102.529 17.7742C102.269 17.8308 102.005 17.8597 101.739 17.8603C101.213 17.8805 100.692 17.7539 100.236 17.4949C99.8153 17.2295 99.4455 16.8925 99.1431 16.4995L97.8032 17.5306C98.218 18.17 98.8068 18.6797 99.5014 19.0006C100.213 19.2811 100.975 19.4163 101.74 19.3982C102.239 19.3986 102.736 19.3411 103.221 19.2267C103.683 19.1208 104.122 18.9355 104.52 18.6793C104.899 18.4293 105.213 18.0934 105.437 17.6993C105.679 17.2521 105.798 16.7495 105.784 16.2419C105.797 15.8055 105.708 15.372 105.524 14.9756C105.356 14.6396 105.112 14.3466 104.812 14.1195V14.1195Z" fill="#109BE9"/>
<path d="M116.97 16.7572V9.09082H115.282V13.9908C115.288 14.5191 115.226 15.0459 115.098 15.5588C114.99 15.9985 114.799 16.4137 114.534 16.7824C114.283 17.1252 113.948 17.3986 113.56 17.5769C113.115 17.7733 112.631 17.869 112.143 17.8569C111.814 17.8834 111.483 17.8309 111.178 17.7038C110.873 17.5768 110.603 17.3789 110.391 17.1268C109.986 16.5414 109.787 15.839 109.827 15.1297V9.09082H108.139V15.297C108.134 15.8596 108.21 16.42 108.366 16.9609C108.502 17.4405 108.743 17.8844 109.071 18.2608C109.4 18.6288 109.811 18.9163 110.27 19.1008C110.818 19.313 111.403 19.4153 111.99 19.4018C112.386 19.405 112.78 19.3505 113.159 19.2401C113.501 19.1411 113.829 18.9968 114.132 18.811C114.408 18.6423 114.659 18.4364 114.878 18.1992C115.075 17.9882 115.24 17.7492 115.366 17.4901H115.409C115.409 17.7771 115.416 18.0571 115.43 18.3301C115.445 18.6031 115.452 18.8752 115.452 19.1463H117.053C117.053 18.8164 117.039 18.4512 117.009 18.0508C116.98 17.6504 116.967 17.2192 116.97 16.7572Z" fill="#109BE9"/>
<path d="M135.208 11.2925C135.096 10.8062 134.874 10.3515 134.559 9.9625C134.241 9.58609 133.832 9.29687 133.369 9.1225C132.787 8.91393 132.17 8.81563 131.552 8.8327C130.88 8.80357 130.215 8.97973 129.648 9.3374C129.122 9.71208 128.68 10.1912 128.35 10.7444C128.264 10.5722 128.152 10.3753 128.014 10.1536C127.861 9.91425 127.667 9.70339 127.441 9.5306C127.163 9.32084 126.854 9.15551 126.524 9.0406C126.082 8.89292 125.616 8.82373 125.15 8.8362C124.755 8.83296 124.361 8.88745 123.982 8.9979C123.639 9.0969 123.312 9.24123 123.008 9.427C122.732 9.59597 122.481 9.80183 122.262 10.0388C122.065 10.2498 121.901 10.4888 121.775 10.7479H121.732C121.732 10.4609 121.724 10.1823 121.71 9.9079C121.696 9.6335 121.688 9.364 121.688 9.0917H120.088C120.088 9.42163 120.102 9.7868 120.131 10.1872C120.159 10.5876 120.174 11.0172 120.174 11.4759V19.1416H121.863V14.2458C121.857 13.7173 121.919 13.1902 122.047 12.6771C122.154 12.2372 122.346 11.8219 122.611 11.4535C122.862 11.1106 123.197 10.8371 123.584 10.659C124.03 10.4625 124.514 10.3668 125.002 10.379C125.29 10.3545 125.581 10.4064 125.843 10.5293C126.105 10.6523 126.33 10.8419 126.494 11.079C126.856 11.8155 127.013 12.6349 126.949 13.452V19.143H128.633V13.3428C128.628 12.9295 128.698 12.5186 128.839 12.1297C128.964 11.7849 129.155 11.4677 129.403 11.1959C129.637 10.9414 129.92 10.7368 130.236 10.5946C130.555 10.4511 130.902 10.3778 131.253 10.3797C131.67 10.3647 132.084 10.4454 132.464 10.6156C132.764 10.7593 133.024 10.9734 133.221 11.2393C133.411 11.5025 133.544 11.8022 133.611 12.1192C133.683 12.4509 133.719 12.7893 133.719 13.1286V19.1416H135.403V13.0425C135.409 12.4535 135.344 11.8659 135.208 11.2925Z" fill="#109BE9"/>
</svg>
