<svg width="24" height="24" viewBox="0 0 24 24" fill="none" xmlns="http://www.w3.org/2000/svg">
<path fill-rule="evenodd" clip-rule="evenodd" d="M12 21.571L3.51499 13.086C1.17599 10.747 1.17599 6.94001 3.51499 4.60101C5.85399 2.26101 9.66099 2.26101 12 4.60101C14.339 2.26101 18.146 2.26101 20.485 4.60101C22.824 6.94001 22.824 10.747 20.485 13.086L12 21.571ZM7.75699 4.84301C6.68899 4.84301 5.68399 5.25901 4.92799 6.01401C3.36799 7.57401 3.36799 10.112 4.92799 11.671L12 18.743L19.071 11.672C20.631 10.112 20.631 7.57401 19.071 6.01501C17.56 4.50401 14.925 4.50401 13.414 6.01501C13.217 6.21201 13.032 6.45201 12.85 6.74501L12 8.11701L11.15 6.74501C10.968 6.45101 10.783 6.21201 10.586 6.01501C9.83099 5.25901 8.82599 4.84301 7.75699 4.84301Z" fill="white"/>
</svg>
